<!-- Hole 3, Par 4. Wide green with curved bottom, large sand area on the lower-left side. -->
<svg viewBox="0 0 400 300" xmlns="http://www.w3.org/2000/svg">
  <rect width="400" height="300" fill="#2D4A24"/>
  <!-- Large left/front bunker complex -->
  <path d="M 30 200 Q 50 175 110 185 Q 140 200 130 230 Q 100 250 60 245 Q 25 235 30 200 Z" fill="#D4C878" opacity="0.9"/>
  <!-- Back-right bunker -->
  <ellipse cx="320" cy="100" rx="30" ry="14" fill="#D4C878" opacity="0.85"/>
  <!-- Green: wide, curved at the bottom -->
  <path d="M 90 130 Q 130 90 220 95 Q 320 100 350 145 Q 360 200 280 220 Q 200 230 140 215 Q 80 195 90 130 Z" fill="#3D5E32"/>
  <path d="M 105 135 Q 140 105 220 110 Q 315 115 340 150 Q 348 195 280 210 Q 200 220 145 205 Q 95 188 105 135 Z" fill="#6FBF54"/>
  <text x="200" y="288" text-anchor="middle" font-size="11" fill="rgba(255,255,255,0.45)" font-family="Lora, serif" letter-spacing="2">FRONT</text>
</svg>
