<!-- Hole 9, Par 3 (131 yds). Kidney green with prominent pond at the back-right (the iconic Clinton pond). -->
<svg viewBox="0 0 400 300" xmlns="http://www.w3.org/2000/svg">
  <rect width="400" height="300" fill="#2D4A24"/>
  <!-- The pond, back-right of the green -->
  <path d="M 230 60 Q 290 50 330 75 Q 360 110 340 145 Q 305 165 260 150 Q 215 130 230 60 Z" fill="#2A5878" opacity="0.92"/>
  <path d="M 245 75 Q 290 68 320 88 Q 345 115 328 140 Q 300 155 265 142 Q 230 125 245 75 Z" fill="#3A6E8C" opacity="0.6"/>
  <!-- Front bunker -->
  <ellipse cx="160" cy="225" rx="32" ry="13" fill="#D4C878" opacity="0.9"/>
  <ellipse cx="80"  cy="170" rx="20" ry="14" fill="#D4C878" opacity="0.85"/>
  <!-- Green: kidney, curling toward the pond -->
  <path d="M 70 180 Q 80 130 160 130 Q 220 130 235 165 Q 230 200 175 215 Q 110 222 70 180 Z" fill="#3D5E32"/>
  <path d="M 85 178 Q 95 142 160 142 Q 215 142 225 168 Q 220 195 172 207 Q 115 213 85 178 Z" fill="#6FBF54"/>
  <text x="200" y="288" text-anchor="middle" font-size="11" fill="rgba(255,255,255,0.45)" font-family="Lora, serif" letter-spacing="2">FRONT</text>
</svg>
